<svg xmlns="http://www.w3.org/2000/svg" viewBox="0 0 116.59 116"><defs><style>.cls-1{fill:none;stroke:#333;stroke-linecap:round;stroke-linejoin:round;stroke-width:2px;}</style></defs><title>Asset 3</title><g id="Layer_2" data-name="Layer 2"><g id="Icons"><path class="cls-1" d="M57.65,59.11,31.9,73.3a1.25,1.25,0,0,0-.65,1.1V99.55a1.23,1.23,0,0,0,.65,1.1l25.75,14.19a1.26,1.26,0,0,0,1.22,0l25.76-14.19a1.25,1.25,0,0,0,.65-1.1V74.4a1.27,1.27,0,0,0-.65-1.1L58.87,59.11A1.26,1.26,0,0,0,57.65,59.11Z"/><polyline class="cls-1" points="84.81 73.48 58.17 88.37 31.54 73.48"/><polyline class="cls-1" points="84.81 73.48 58.17 88.37 58.17 115"/><rect class="cls-1" x="48.33" y="17.18" width="19.93" height="24.91"/><line class="cls-1" x1="58.3" y1="42.09" x2="58.3" y2="49.57"/><rect class="cls-1" x="68.26" y="27.15" width="47.33" height="7.47"/><rect class="cls-1" x="1" y="27.15" width="47.33" height="7.47"/><path class="cls-1" d="M82,1c0,6.33-6.15,6.22-6.15,6.22H63.72c-5.95,0-5.44,6.43-5.44,6.43l0,1v2.49"/></g></g></svg>