<svg xmlns="http://www.w3.org/2000/svg" viewBox="0 0 116.17 122"><defs><style>.cls-1{fill:none;stroke:#333;stroke-linecap:round;stroke-linejoin:round;stroke-width:2px;}</style></defs><title>Asset 2</title><g id="Layer_2" data-name="Layer 2"><g id="Icons"><path class="cls-1" d="M75.37,68A10.67,10.67,0,0,1,54,68c0-5.89,10.66-19.8,10.66-19.8S75.37,62.09,75.37,68Z"/><path class="cls-1" d="M48,68c0-3.84,4.52-11.07,7.68-15.65-1.69-2.46-3-4.15-3-4.15S42,62.09,42,68A10.67,10.67,0,0,0,52.66,78.64a10.54,10.54,0,0,0,3-.43A10.66,10.66,0,0,1,48,68Z"/><path class="cls-1" d="M54,68c0-3.83,4.5-11,7.65-15.62-1.7-2.47-3-4.18-3-4.18S48,62.09,48,68A10.67,10.67,0,0,0,61.69,78.21,10.67,10.67,0,0,1,54,68Z"/><path class="cls-1" d="M73.39,82.4h20.3L71.34,105.61V84.53A2.09,2.09,0,0,1,73.39,82.4Z"/><rect class="cls-1" x="18.01" y="48.23" width="7.44" height="16.28"/><rect class="cls-1" x="11.9" y="52.3" width="6.11" height="8.14"/><rect class="cls-1" x="93.69" y="48.23" width="7.44" height="16.28"/><rect class="cls-1" x="101.14" y="52.3" width="6.11" height="8.14"/><rect class="cls-1" x="11.74" y="23.81" width="6.11" height="8.14"/><rect class="cls-1" x="101.3" y="23.81" width="6.11" height="8.14"/><rect class="cls-1" x="17.84" y="19.73" width="83.46" height="16.28"/><path class="cls-1" d="M25.45,36v67.46a2.09,2.09,0,0,0,2.05,2.13H71.34L93.69,82.4V36Z"/><circle class="cls-1" cx="11.9" cy="105.61" r="2.78"/><circle class="cls-1" cx="112.39" cy="70.85" r="2.78"/><circle class="cls-1" cx="82.11" cy="114.09" r="2.78"/><line class="cls-1" x1="10.39" y1="4.35" x2="10.39" y2="11.04"/><line class="cls-1" x1="13.73" y1="7.69" x2="7.04" y2="7.69"/><line class="cls-1" x1="67.21" y1="1" x2="67.21" y2="7.69"/><line class="cls-1" x1="70.56" y1="4.35" x2="63.87" y2="4.35"/><circle class="cls-1" cx="40.89" cy="9.15" r="2.78"/><circle class="cls-1" cx="99.41" cy="6.95" r="2.78"/><line class="cls-1" x1="104.06" y1="92.34" x2="104.06" y2="99.03"/><line class="cls-1" x1="100.72" y1="95.68" x2="107.41" y2="95.68"/><line class="cls-1" x1="4.35" y1="73.29" x2="4.35" y2="79.98"/><line class="cls-1" x1="1" y1="76.63" x2="7.69" y2="76.63"/><line class="cls-1" x1="43.67" y1="114.31" x2="43.67" y2="121"/><line class="cls-1" x1="40.33" y1="117.65" x2="47.02" y2="117.65"/></g></g></svg>