<svg xmlns="http://www.w3.org/2000/svg" viewBox="0 0 136 96.94"><defs><style>.cls-1{fill:none;stroke:#333;stroke-linecap:round;stroke-linejoin:round;stroke-width:2px;}</style></defs><title>Asset 4</title><g id="Layer_2" data-name="Layer 2"><g id="Icons"><path class="cls-1" d="M90.08,70.52a1.06,1.06,0,0,1-1.07,1H40.87a1.06,1.06,0,0,1-1.07-1V51.58c0-.58.48-1.41,1.07-1.41H89c.59,0,1.07.83,1.07,1.41Z"/><line class="cls-1" x1="45.15" y1="55.52" x2="52.64" y2="55.52"/><polygon class="cls-1" points="84.73 65.69 45.15 65.69 45.15 65.69 84.73 65.69 84.73 65.69"/><path class="cls-1" d="M50.36,37.34H79.52a2,2,0,0,1,2,2V50.17a0,0,0,0,1,0,0H48.36a0,0,0,0,1,0,0V39.34A2,2,0,0,1,50.36,37.34Z"/><path class="cls-1" d="M8.86,87H127.13a0,0,0,0,1,0,0v2.83a6.1,6.1,0,0,1-6.1,6.1H15a6.1,6.1,0,0,1-6.1-6.1V87a0,0,0,0,1,0,0Z"/><line class="cls-1" x1="60.57" y1="89.22" x2="75.49" y2="89.22"/><path class="cls-1" d="M17.48,87V21.85a2.93,2.93,0,0,1,2.92-2.93h95.19a2.93,2.93,0,0,1,2.93,2.93V87"/><polyline class="cls-1" points="24.19 87 24.19 25.8 112.02 25.8 112.02 87"/><line class="cls-1" x1="1" y1="95.94" x2="135" y2="95.94"/><circle class="cls-1" cx="4.63" cy="25.64" r="3.02"/><circle class="cls-1" cx="60.57" cy="4.63" r="3.02"/><line class="cls-1" x1="8.86" y1="52.77" x2="8.86" y2="60.03"/><line class="cls-1" x1="12.5" y1="56.4" x2="5.23" y2="56.4"/><line class="cls-1" x1="24.19" y1="1" x2="24.19" y2="8.27"/><line class="cls-1" x1="27.82" y1="4.63" x2="20.56" y2="4.63"/><line class="cls-1" x1="90.59" y1="1" x2="90.59" y2="8.27"/><line class="cls-1" x1="94.22" y1="4.63" x2="86.95" y2="4.63"/><circle class="cls-1" cx="127.13" cy="13.7" r="3.02"/><line class="cls-1" x1="130.77" y1="45.84" x2="130.77" y2="53.1"/><line class="cls-1" x1="127.13" y1="49.47" x2="134.4" y2="49.47"/><path class="cls-1" d="M90.75,64.94l1.92,9.58a1.31,1.31,0,0,0,2.21.67l2-2,3.71,3.71a2.61,2.61,0,0,0,3.71,0h0a2.61,2.61,0,0,0,0-3.71l-3.71-3.71,2-2a1.32,1.32,0,0,0-.67-2.22L92.3,63.4A1.31,1.31,0,0,0,90.75,64.94Z"/></g></g></svg>