<svg xmlns="http://www.w3.org/2000/svg" viewBox="0 0 87.46 98.14"><defs><style>.cls-1{fill:none;stroke:#333;stroke-linecap:round;stroke-linejoin:round;stroke-width:2px;}</style></defs><title>Asset 1</title><g id="Layer_2" data-name="Layer 2"><g id="Icons"><path class="cls-1" d="M65.92,46.86a14.18,14.18,0,1,1-28.36,0c0-7.83,14.18-26.32,14.18-26.32S65.92,39,65.92,46.86Z"/><path class="cls-1" d="M29.49,46.86c0-5.1,6-14.72,10.21-20.81-2.25-3.26-4-5.51-4-5.51S21.54,39,21.54,46.86A14.15,14.15,0,0,0,39.7,60.46,14.16,14.16,0,0,1,29.49,46.86Z"/><path class="cls-1" d="M37.56,46.86c0-5.09,6-14.67,10.17-20.76-2.26-3.29-4-5.56-4-5.56S29.55,39,29.55,46.86a14.17,14.17,0,0,0,18.18,13.6A14.18,14.18,0,0,1,37.56,46.86Z"/><polyline class="cls-1" points="75.78 86.46 75.78 79.78 11.68 79.78 11.68 86.46"/><path class="cls-1" d="M1,86.46V11.06A10.07,10.07,0,0,1,11.06,1H76.4A10.06,10.06,0,0,1,86.46,11.06v75.4"/><path class="cls-1" d="M75.78,86.46V97.14c8.55,0,10.68-3.06,10.68-6.85V86.46"/><path class="cls-1" d="M1,86.46v3.83c0,3.79,3.2,6.85,10.68,6.85V86.46"/><path class="cls-1" d="M1,86.46s1.87-6.68,10.68-6.68v6.68"/><path class="cls-1" d="M86.46,86.46s-1.87-6.68-10.68-6.68v6.68"/></g></g></svg>